<?xml version="1.0" encoding="UTF-8"?>
<svg id="Layer_2" data-name="Layer 2" xmlns="http://www.w3.org/2000/svg" viewBox="0 0 70.34 74.73">
  <defs>
    <style>
      .cls-1 {
        fill: #000;
        stroke-width: 0px;
      }
    </style>
  </defs>
  <g id="Layer_1-2" data-name="Layer 1">
    <path class="cls-1" d="M0,40.19v-7.56c.03-.46.23-.86.46-1.24,2.3-3.78,4.62-7.56,6.93-11.34,3.68-6.02,7.36-12.04,11.04-18.05.42-.68.83-1.36,1.23-2h17.56c0,8.77,0,17.48.05,26.21.63-.37,1.18-.77,1.76-1.12,2.69-1.59,5.61-2.43,8.72-2.71,2.94-.27,5.83-.01,8.66.81,3.33.97,6.26,2.64,8.63,5.19,2.67,2.87,4.2,6.26,4.6,10.16.29,2.87,0,5.66-1.07,8.35-1,2.51-2.56,4.64-4.36,6.62-1.61,1.77-3.42,3.34-5.16,4.97-1.61,1.52-3.24,3.02-4.85,4.53-.14.13-.26.27-.46.49h16.59v.57c0,2.7,0,5.39,0,8.09,0,.86.04,1.72-.04,2.58H29.1c-.06-.17.09-.23.17-.31,2.32-2.39,4.64-4.79,6.95-7.18.94-.97,1.92-1.91,2.86-2.88.69-.71,1.33-1.46,2.02-2.17,2.8-2.88,5.55-5.8,8.07-8.93,1.68-2.08,3.28-4.21,4.61-6.54.91-1.6,1.69-3.25,1.99-5.09.21-1.29.25-2.56-.16-3.8-.95-2.82-3.5-4.34-6.44-3.9-2.21.33-3.63,1.6-4.4,3.65-.37.97-.45,1.99-.38,3.02.03.51.14,1.02.1,1.6h-7.29v8.83h-12.4v-10.44H.09c-.03-.16-.06-.29-.09-.41ZM24.86,30.39V10.38s-.04-.02-.06-.03c-1.3,2.22-2.6,4.45-3.89,6.65.05.15.2.19.21.32-.13.01-.17-.17-.33-.11-2.55,4.36-5.11,8.74-7.71,13.18h11.78Z"/>
  </g>
</svg>