<?xml version="1.0" encoding="UTF-8"?>
<svg id="Layer_2" data-name="Layer 2" xmlns="http://www.w3.org/2000/svg" xmlns:xlink="http://www.w3.org/1999/xlink" viewBox="0 0 323.87 561.38">
  <defs>
    <style>
      .cls-1 {
        fill: #3953a4;
      }

      .cls-1, .cls-2, .cls-3, .cls-4, .cls-5, .cls-6, .cls-7, .cls-8, .cls-9, .cls-10, .cls-11, .cls-12, .cls-13 {
        stroke-miterlimit: 10;
      }

      .cls-1, .cls-2, .cls-3, .cls-4, .cls-5, .cls-6, .cls-7, .cls-8, .cls-9, .cls-10, .cls-11, .cls-13 {
        stroke-width: .25px;
      }

      .cls-1, .cls-2, .cls-4, .cls-6, .cls-7, .cls-8, .cls-9, .cls-11, .cls-12, .cls-13 {
        stroke: #231f20;
      }

      .cls-14 {
        clip-path: url(#clippath);
      }

      .cls-15, .cls-3, .cls-10, .cls-13 {
        fill: none;
      }

      .cls-15, .cls-16, .cls-17 {
        stroke-width: 0px;
      }

      .cls-2 {
        fill: #131c37;
      }

      .cls-3, .cls-5, .cls-10 {
        stroke: #fff;
      }

      .cls-4 {
        fill: #69471b;
      }

      .cls-5, .cls-16, .cls-11 {
        fill: #231f20;
      }

      .cls-6 {
        fill: #e6e7e8;
      }

      .cls-7 {
        fill: #c2e3f7;
      }

      .cls-8 {
        fill: #faa51d;
      }

      .cls-9, .cls-12, .cls-17 {
        fill: #fff;
      }

      .cls-10, .cls-12 {
        stroke-linecap: round;
      }

      .cls-12 {
        stroke-width: 1.5px;
      }
    </style>
    <clipPath id="clippath">
      <path class="cls-15" d="M10.83,231.05l97.14,267.92c3.64,10.05,14.76,15.21,24.79,11.51l94.22-34.77c6.48-2.39,10.9-7.9,12.21-14.19.09-.45,23.74,20.28,45.98,39.89,15.79,13.92,38.3,23.5,38.3,23.5l.41-1.65s-.95-.05-1.03-.12c-2.09-1.98-5.12-5.04-8.52-8.78-13.69-15.05-35.36-39.76-40.28-42.43-11.77-6.37-34.48-15.38-34.53-16-.15-1.66-.51-3.32-1.12-4.96l-11.85-32.19-86.65-235.45c-3.68-10.01-14.8-15.12-24.8-11.41l-92.87,34.5c-9.92,3.69-15.01,14.68-11.41,24.63Z"/>
    </clipPath>
  </defs>
  <g id="Layer_1-2" data-name="Layer 1">
    <g>
      <path class="cls-5" d="M280.26,354.31l-9.37-6.17-63.89-26.89-8.63-2.22h-13.35l22.95,50.43s16.92,7.39,14.5,10.93c-2.43,3.54-15.16.7-15.16.7l-145.46-17.69-23.74,1.91s-10.67,1.54-10.67,13.19,11.57,18.13,15.77,18.13,36.03,3.83,36.03,3.83v12.09l-23.34-1.29s-13.43-.57-13.43,12.77,13.65,16.96,13.65,16.96l33.38,6.78,6.92,37.24s-12.95,3.33-9.27,12.79c3.68,9.46,14.65,11.49,14.65,11.49,0,0,51.15,4.16,59.14,4.16h14.64c10.68,0,44.02,6.47,48.2,8.26,4.17,1.79,44.41,26.85,50.39,30.1,5.98,3.24,11.74,5.03,15.16,6.21,3.43,1.18,13.42,3.23,20.63,3.23h13.67v-163.28l-43.36-43.66ZM226.19,482.11h-20.02l17.26-6.45s2.1,1.25,2.48,2.57.28,3.88.28,3.88Z"/>
      <g>
        <path class="cls-8" d="M294.18,58.21l-1.08.86-20.03-5.85,1.79-1.17c.71-.47,1-1.36.71-2.16l-12.03-32.42,8.64,2.13c.08.05.18.08.27.1l8.32,2.03.83.2c.56.16,1.02.58,1.22,1.14l11.94,33.09c.26.73.03,1.56-.58,2.05Z"/>
        <path class="cls-8" d="M272.18,19.6l-8.64-2.13-.04-.11c-.43-1.15-1.85-1.56-2.82-.81l-3.97,3.06c-.98.75-2.4.35-2.83-.81l-5.15-13.88c-.42-1.14-1.82-1.55-2.79-.83l-3.58,2.64c-.95.7-2.31.33-2.77-.76l-2-4.73c-.14-.34-.37-.61-.65-.79l29.89,8.88c.54.16.98.57,1.18,1.09l3.17,8.16c.18.47.54.84,1,1.02Z"/>
        <path class="cls-4" d="M288.11,63.05c-.64.5-.86,1.37-.55,2.13l.28.67-19.79-5.77-.6-1.34c-.37-.82-.08-1.78.66-2.27l4.95-3.25h0l20.03,5.85-4.99,3.98Z"/>
        <path class="cls-8" d="M293.15,82.26l-.64.46-20.79-6.06,1.62-1.19c.69-.51.94-1.43.59-2.22l-5.88-13.17,19.79,5.77,5.94,14.22c.32.79.07,1.7-.63,2.19Z"/>
        <path class="cls-8" d="M288.44,96.34l-1.11.8h-.01l-20.21-5.82,1.49-1.09c.79-.58.98-1.67.44-2.48l-2.53-3.83,20.08,5.84,2.38,4.19c.46.81.23,1.85-.53,2.39Z"/>
        <path class="cls-4" d="M286.27,89.2l.32.56-20.08-5.84h0s-.58-.88-.58-.88c-.54-.81-.35-1.91.44-2.48l5.35-3.91,20.79,6.06-5.71,4.1c-.76.54-.99,1.57-.53,2.39Z"/>
        <path class="cls-4" d="M273.55,108.98l.29.52-20.02-5.77-.27-.46c-.47-.81-.25-1.84.5-2.39l13.06-9.56,20.21,5.82-13.24,9.46c-.76.54-.99,1.57-.53,2.38Z"/>
        <path class="cls-8" d="M276.09,116.84l-.71.49-20.17-5.8.85-.59c.79-.54,1.02-1.59.54-2.42l-2.78-4.78,20.02,5.77h.01l2.78,4.93c.47.82.23,1.86-.54,2.4Z"/>
        <path class="cls-4" d="M275.38,117.33h0s-28.05,19.51-28.05,19.51c-.5.35-1.15.42-1.72.2l-8.93-3.57c-.61-.24-1.3-.14-1.82.27l-6.01,4.77c-.48.39-1.13.5-1.72.3l-30.62-10.28c.53.15,1.11.06,1.59-.32l3.36-2.62c.92-.72,2.27-.4,2.77.66l2.32,4.92c.48,1.02,1.77,1.36,2.7.71l10.99-7.71c.91-.64,2.19-.32,2.68.68l2.34,4.74c.5,1,1.76,1.33,2.67.7l27.29-18.76,20.17,5.8Z"/>
        <path class="cls-8" d="M192.25,119.58c-.2-.51-.63-.9-1.16-1.06l-7.56-2.3c-.27-.08-.51-.22-.7-.4.25-.05.5-.15.73-.31l3.68-2.62c.97-.69,2.33-.28,2.76.84l2.25,5.85Z"/>
        <path class="cls-8" d="M228.96,4.69l-5.22,3.75c-.9.65-2.18.34-2.68-.66l-2.47-4.84c.4-.23.88-.3,1.35-.18l7.79,2.04c.41.11.85.07,1.23-.11Z"/>
        <path class="cls-9" d="M208.26,52.8l-5.94,4.04c-.51.35-1.17.26-1.57-.15l4.31-13.36,3.63,7.94c.25.55.07,1.19-.43,1.53Z"/>
        <path class="cls-9" d="M196.46,128.52c-.52-.14-.97-.52-1.19-1.09l-3.01-7.83,3.08,7.86c.19.5.6.89,1.12,1.06Z"/>
        <path class="cls-9" d="M229.2,4.56c-.08.05-.15.09-.23.13l5.88-4.22c.65-.47,1.49-.44,2.09-.02l-.27-.08c-.52-.15-1.08-.07-1.53.23l-5.94,3.96Z"/>
        <path class="cls-8" d="M275.57,49.88l-12.03-32.42-.04-.11c-.43-1.15-1.85-1.56-2.82-.81l-3.97,3.06c-.98.75-2.4.35-2.83-.81l-5.15-13.88c-.42-1.14-1.82-1.55-2.79-.83l-3.58,2.64c-.95.7-2.31.33-2.77-.76l-2-4.73c-.14-.34-.37-.61-.65-.79l-.27-.08c-.52-.15-1.08-.07-1.53.23l-5.94,3.96c-.08.05-.15.09-.23.13h0l-5.22,3.75c-.9.65-2.18.34-2.68-.66l-2.47-4.84-.32-.62c-.51-.99-1.79-1.3-2.7-.64l-28.41,20.49c-.79.56-.99,1.64-.48,2.45l2.99,4.7c.52.82.3,1.9-.49,2.47l-14.72,10.39c-.77.54-1,1.57-.54,2.38l3.05,5.43c.44.79.25,1.78-.46,2.33l-6.19,4.85c-.66.51-.88,1.41-.54,2.17l6.25,14.15c.34.77.1,1.68-.57,2.19l-6.4,4.88c-.65.49-.89,1.35-.6,2.11l12.34,32.01c.33.85,1.2,1.29,2.03,1.14.25-.05.5-.15.73-.31l3.68-2.62c.97-.69,2.33-.28,2.76.84l2.25,5.85v.02s3.09,7.86,3.09,7.86c.19.5.6.89,1.12,1.06,0,.01.03.02.04.01.53.15,1.11.06,1.59-.32l3.36-2.62c.92-.72,2.27-.4,2.77.66l2.32,4.92c.48,1.02,1.77,1.36,2.7.71l10.99-7.71c.91-.64,2.19-.32,2.68.68l2.34,4.74c.5,1,1.76,1.33,2.67.7l27.29-18.76.85-.59c.79-.54,1.02-1.59.54-2.42l-2.78-4.78-.27-.46c-.47-.81-.25-1.84.5-2.39l13.06-9.56,1.49-1.09c.79-.58.98-1.67.44-2.48l-2.53-3.83h0s-.58-.88-.58-.88c-.54-.81-.35-1.91.44-2.48l5.35-3.91,1.62-1.19c.69-.51.94-1.43.59-2.22l-5.88-13.17-.6-1.34c-.37-.82-.08-1.78.66-2.27l4.95-3.25h0l1.79-1.17c.71-.47,1-1.36.71-2.16ZM251.81,78.41l-21.55,15.1c-.62.43-1.49.21-1.82-.48l-11.16-23.19c-.27-.55-.09-1.21.42-1.56l12.7-8.65c.5-.35.68-1,.43-1.55l-2.88-6.19c-.32-.69-1.19-.93-1.82-.5l-4.13,2.82c-.5.34-.68.99-.43,1.54l1.93,4.15c.26.55.08,1.21-.43,1.55l-6.33,4.19c-.63.42-1.49.18-1.8-.51l-1.55-3.38c-.31-.68-1.14-.93-1.77-.54l-14.65,9.04c-.21.13-.43.19-.65.19-.48,0-.92-.28-1.13-.76l-7.61-17.84c-.23-.54-.05-1.18.45-1.51l6.48-4.35c.65-.43,1.52-.17,1.83.54l4.15,9.77c.06.15.15.28.26.39.4.41,1.06.5,1.57.15l5.94-4.04c.5-.34.68-.98.43-1.53l-3.63-7.94h0s-.93-2.03-.93-2.03c-.25-.57-.05-1.24.48-1.56l2-1.23h0s4.21-2.61,4.21-2.61c.64-.39,1.47-.13,1.78.55l3.72,8.44c.32.72,1.21.97,1.85.51l12.28-8.74c.62-.44,1.49-.23,1.83.45l11.68,23.6c.28.55.1,1.23-.41,1.57l-13.62,9.21c-.5.34-.69,1-.43,1.55l2.67,5.7c.33.7,1.2.93,1.83.48l13.21-9.35c.63-.44,1.5-.21,1.83.47l3.17,6.53c.26.54.09,1.2-.4,1.55Z"/>
        <line class="cls-13" x1="288.02" y1="65.9" x2="287.84" y2="65.85"/>
        <line class="cls-13" x1="268.05" y1="60.08" x2="267.98" y2="60.06"/>
        <line class="cls-13" x1="271.72" y1="76.66" x2="271.62" y2="76.63"/>
        <polyline class="cls-13" points="266.44 83.91 266.46 83.91 266.51 83.93"/>
        <line class="cls-13" x1="286.62" y1="89.78" x2="286.59" y2="89.77"/>
        <line class="cls-13" x1="266.51" y1="83.92" x2="266.46" y2="83.91"/>
        <line class="cls-13" x1="267.11" y1="91.33" x2="266.97" y2="91.29"/>
        <line class="cls-13" x1="253.82" y1="103.74" x2="253.68" y2="103.7"/>
        <line class="cls-13" x1="255.21" y1="111.53" x2="255.15" y2="111.51"/>
        <line class="cls-13" x1="275.43" y1="117.35" x2="275.38" y2="117.33"/>
        <line class="cls-13" x1="280.77" y1="21.73" x2="272.18" y2="19.6"/>
        <line class="cls-13" x1="263.54" y1="17.47" x2="263.5" y2="17.46"/>
        <path class="cls-9" d="M252.21,76.87l-3.17-6.53c-.33-.68-1.2-.91-1.83-.47l-13.21,9.35c-.63.45-1.5.22-1.83-.48l-2.67-5.7c-.26-.55-.07-1.21.43-1.55l13.62-9.21c.51-.34.69-1.02.41-1.57l-11.68-23.6c-.34-.68-1.21-.89-1.83-.45l-12.28,8.74c-.64.46-1.53.21-1.85-.51l-3.72-8.44c-.31-.68-1.14-.94-1.78-.55l-4.21,2.6h0s-2,1.24-2,1.24c-.53.32-.73.99-.48,1.56l.93,2.02h0s3.63,7.95,3.63,7.95c.25.55.07,1.19-.43,1.53l-5.94,4.04c-.51.35-1.17.26-1.57-.15-.11-.11-.2-.24-.26-.39l-4.15-9.77c-.31-.71-1.18-.97-1.83-.54l-6.48,4.35c-.5.33-.68.97-.45,1.51l7.61,17.84c.21.48.65.76,1.13.76.22,0,.44-.06.65-.19l14.65-9.04c.63-.39,1.46-.14,1.77.54l1.55,3.38c.31.69,1.17.93,1.8.51l6.33-4.19c.51-.34.69-1,.43-1.55l-1.93-4.15c-.25-.55-.07-1.2.43-1.54l4.13-2.82c.63-.43,1.5-.19,1.82.5l2.88,6.19c.25.55.07,1.2-.43,1.55l-12.7,8.65c-.51.35-.69,1.01-.42,1.56l11.16,23.19c.33.69,1.2.91,1.82.48l21.55-15.1c.49-.35.66-1.01.4-1.55Z"/>
      </g>
      <g>
        <path class="cls-11" d="M130.68,509.82l-6.25,2.31c-11.07,4.08-23.36-1.61-27.39-12.7L1.42,236.68c-4.01-11.01,1.63-23.19,12.61-27.26l6.38-2.36c-8.7,4.26-12.96,14.48-9.58,23.78l96.8,266.98c3.43,9.46,13.52,14.58,23.05,12Z"/>
        <path class="cls-9" d="M221.35,476.35l-90.63,33.46s-.03,0-.04.01c-9.53,2.58-19.62-2.54-23.05-12L10.83,230.84c-3.38-9.3.88-19.52,9.58-23.78l87.59-32.45c6.96-2.58,14.41-1.29,19.99,2.8,3.23,2.35,5.83,5.65,7.34,9.67l59.82,158.87,38.75,102.92c4.17,11.06-1.47,23.39-12.55,27.48Z"/>
        <path class="cls-9" d="M226.22,474.64l-93.89,34.65c-.53.2-1.07.37-1.61.52-.02,0-.03,0-.04.01-9.53,2.58-19.62-2.54-23.05-12L10.83,230.84c-3.38-9.3.88-19.52,9.58-23.78.57-.29,1.17-.54,1.78-.77l92.54-34.38c9.97-3.7,21.04,1.4,24.71,11.37l98.16,266.71c3.66,9.95-1.43,20.98-11.38,24.65Z"/>
        <path class="cls-9" d="M17.18,234.32l91.41,258.47c3.41,9.63,13.81,14.59,23.19,11.04l88.78-33.59c9.33-3.53,14.11-14.15,10.68-23.72l-92.69-258.21c-3.45-9.6-13.84-14.5-23.2-10.94l-87.51,33.33c-9.28,3.54-14.04,14.08-10.67,23.62Z"/>
        <path class="cls-6" d="M34.32,208.23l2.02,4.97c1.21,2.98,4.56,4.47,7.58,3.36l59.44-21.7c3.24-1.18,4.81-4.86,3.42-8.02l-2.35-5.32-70.11,26.7Z"/>
        <path class="cls-7" d="M38.45,279.65l40.13,111.1c3.42,9.46,13.84,14.37,23.31,11l79.2-28.23c9.61-3.43,14.55-14.07,10.97-23.62l-41.67-110.98c-3.52-9.36-13.91-14.16-23.31-10.75l-77.66,28.1c-9.48,3.43-14.39,13.89-10.96,23.38Z"/>
        <polyline class="cls-12" points="26.93 223.98 25.61 230.77 30.55 234.21"/>
        <path class="cls-8" d="M137.3,461.35l3.83,9.57c1.45,3.63,5.51,5.46,9.19,4.16l42.33-15c3.92-1.39,5.88-5.78,4.3-9.63l-3.95-9.59c-1.48-3.59-5.51-5.39-9.17-4.09l-42.21,15.02c-3.89,1.38-5.85,5.72-4.32,9.56Z"/>
        <path class="cls-9" d="M64.81,200.39l.02.05c.54,1.19,1.93,1.76,3.15,1.28l12.48-4.82c1.33-.51,1.95-2.03,1.37-3.33h0c-.54-1.2-1.92-1.77-3.15-1.3l-12.51,4.77c-1.34.51-1.97,2.04-1.37,3.34Z"/>
        <path class="cls-9" d="M56.88,203.51l.05.1c.7,1.35,2.37,1.88,3.72,1.19h0c1.41-.72,1.93-2.47,1.15-3.84l-.06-.1c-.71-1.25-2.25-1.75-3.55-1.16h0c-1.45.66-2.06,2.4-1.32,3.81Z"/>
        <g>
          <path class="cls-16" d="M31.2,248.43c-.6.22-1,.39-1.41.61l-.63-1.95c.37-.09.98-.27,1.47-.45l.35-.13-.18-.54c-.5-1.53.23-2.59,2.33-3.36.72-.26,1.27-.39,2.03-.48l.16,1.85c-.46-.05-.88,0-1.37.18-.63.23-.8.55-.6,1.16l.1.29.37-.14c.54-.2,1.22-.49,1.69-.71l.64,1.95c-.56.14-.99.27-1.72.54l-.4.15,1.17,3.55c.26.81.42,1.18.68,1.73l-2.69.98c-.11-.6-.23-1.04-.47-1.8l-1.16-3.55-.35.13Z"/>
          <path class="cls-16" d="M37.59,248.05c-.77-2.33.4-4.41,3-5.36,2.61-.96,4.77-.09,5.54,2.21.78,2.32-.42,4.49-3.01,5.44-2.61.95-4.76.06-5.54-2.29ZM40.06,247.13c.43,1.3,1.36,1.83,2.49,1.42,1.13-.41,1.53-1.41,1.09-2.7-.44-1.31-1.35-1.83-2.45-1.43-1.14.42-1.56,1.43-1.13,2.71Z"/>
          <path class="cls-16" d="M46.86,244.66c-.78-2.33.38-4.41,3-5.38,2.63-.96,4.8-.1,5.59,2.21.8,2.33-.4,4.5-3.01,5.45-2.62.96-4.8.07-5.59-2.28ZM49.34,243.73c.44,1.3,1.38,1.83,2.52,1.42,1.14-.41,1.53-1.41,1.09-2.71-.45-1.31-1.37-1.83-2.48-1.43s-1.56,1.44-1.13,2.72Z"/>
          <path class="cls-16" d="M56.26,236.96c-.2-.58-.38-1.04-.65-1.55l2.66-.98c.1.5.25,1.07.45,1.63l.08.24.47-.17c.58-.21.87-.33,1.26-.53l.67,1.93c-.41.1-.76.2-1.23.37l-.55.2,1.03,2.99c.11.33.24.47.44.51.17.03.4,0,.65-.09.34-.12.57-.27.85-.55l.82,1.71c-.54.38-1.02.64-1.73.9-.89.33-1.56.42-2.07.29-.62-.16-.94-.49-1.21-1.29l-1.23-3.57-.5.18c-.42.15-.75.3-1.11.49l-.67-1.94c.39-.09.73-.19,1.18-.36l.47-.17-.08-.24Z"/>
          <path class="cls-16" d="M62.31,236.77c-.97-.96-1.06-1.04-1.33-1.27l2.84-1.04c.2.35.54.79,1.04,1.31l2.15,2.25.24-3.08c.09-.94.08-1.32.02-1.76l2.85-1.05q-.11.73-.24,1.85l-.84,7.29c-.14,1.3-.92,2.15-2.42,2.7-.58.21-1.1.33-1.88.46l-.36-1.97c.5.04.77,0,1.12-.12.5-.18.8-.52.88-.94l.1-.6-4.18-4.03Z"/>
          <path class="cls-16" d="M71.86,231.23c-.21-.58-.4-1.04-.67-1.55l2.69-.99c.1.5.26,1.07.46,1.63l.09.24.48-.17c.58-.21.88-.34,1.27-.53l.69,1.93c-.41.1-.77.2-1.24.38l-.56.2,1.07,2.99c.12.33.24.47.45.51.17.03.4,0,.66-.09.34-.13.58-.28.85-.55l.84,1.71c-.54.38-1.03.64-1.75.9-.9.33-1.57.43-2.09.3-.62-.16-.95-.49-1.23-1.28l-1.27-3.58-.5.18c-.42.15-.76.3-1.12.49l-.69-1.94c.4-.09.74-.19,1.2-.36l.47-.17-.09-.24Z"/>
          <path class="cls-16" d="M86.69,234.16c-.19-.32-.43-.63-.91-1.22l-1.66-2.05c-.14-.17-.25-.31-.31-.4,0,.3.01.33,0,.51l.04,2.64c0,.58.04,1.22.08,1.52l-2.26.82c-.25-.39-.45-.67-.89-1.23l-3.01-3.7c-.29-.35-.67-.79-1.14-1.3l2.84-1.04c.17.4.4.79.75,1.28l1.32,1.88c.17.26.29.42.34.51q0-.51-.02-.63l-.03-2.4q-.04-1.23-.07-1.49l1.94-.71c.12.22.49.72.89,1.19l1.57,1.92c.06.07.23.3.33.42q-.02-.19-.06-.54l-.19-2.27c-.06-.67-.15-1.19-.26-1.57l2.86-1.05c-.04.52-.04,1.11-.04,1.74l.06,4.79c0,.77.03,1.09.1,1.52l-2.27.83Z"/>
          <path class="cls-16" d="M90.59,228.67c-.86-2.34.3-4.44,3-5.43,2.7-.99,4.96-.14,5.83,2.18.87,2.33-.32,4.53-3,5.5-2.7.98-4.96.1-5.83-2.25ZM93.13,227.72c.48,1.3,1.47,1.83,2.63,1.41,1.17-.43,1.55-1.43,1.07-2.73s-1.46-1.83-2.59-1.41c-1.18.43-1.59,1.46-1.11,2.74Z"/>
        </g>
        <g>
          <path class="cls-17" d="M155.05,453.55l.68,1.82-3.89,1.39.79,2.11,3.57-1.27.63,1.68-3.57,1.27.91,2.41,3.97-1.42.68,1.82-5.59,1.99-3.7-9.83,5.52-1.96Z"/>
          <path class="cls-17" d="M157.83,452.55l5.55,5.5h.02s-2.47-6.61-2.47-6.61l1.52-.54,3.68,9.83-1.62.58-5.53-5.49h-.02s2.46,6.59,2.46,6.59l-1.52.54-3.69-9.83,1.61-.57Z"/>
          <path class="cls-17" d="M163.97,452.43l-.68-1.82,6.03-2.15.68,1.82-2.21.79,2.99,8.01-1.62.58-2.99-8.01-2.21.79Z"/>
          <path class="cls-17" d="M175.67,446.2l.68,1.82-3.88,1.38.78,2.11,3.56-1.27.62,1.68-3.56,1.27.9,2.41,3.96-1.41.67,1.81-5.57,1.99-3.66-9.83,5.5-1.96Z"/>
          <path class="cls-17" d="M180.81,444.37c.33-.12.65-.15.97-.1.32.05.62.16.9.34.28.18.53.42.75.71.22.29.4.62.54,1,.21.58.31,1.11.28,1.6-.03.49-.2.91-.53,1.28v.03c.24,0,.44.06.63.16.19.1.36.25.52.42.16.18.3.38.43.62s.25.47.35.72c.06.15.14.33.22.54.08.21.18.42.28.63.1.21.2.41.31.6s.23.33.36.44l-1.61.58c-.2-.28-.4-.63-.58-1.05s-.36-.83-.55-1.2c-.25-.49-.5-.83-.77-1-.27-.17-.6-.19-1.01-.05l-1.61.58,1.42,3.84-1.61.58-3.65-9.83,3.96-1.41ZM181.89,449.03c.37-.13.61-.34.71-.63s.06-.68-.12-1.17-.4-.79-.66-.94-.58-.16-.95-.03l-1.77.63,1.03,2.77,1.77-.63Z"/>
        </g>
      </g>
      <g class="cls-14">
        <path class="cls-5" d="M236.02,418.52s-18.83.12-25.8,1.97c-6.97,1.85-20.29,8.22-20.29,8.22,0,0-20.04,5.91-22.61,7.23s-8.9,7.21-3.34,17.63c5.57,10.42,10.41,9.08,13.2,9s33.25-.55,36.81-1.15,4.64-2.38,8.55-2.38,29.5,4.66,32.14,5.75,4.83,2.36,5.69,3.5,1.65,9.35,21.68,28.68c20.02,19.33,41.57,26.71,41.57,26.71l-87.6-105.16Z"/>
      </g>
      <g>
        <path class="cls-10" d="M226.55,418.78l46.97-3.51s6.98-2.5,10.54-6.54c3.56-4.03,7.71-11.74,7.71-11.74"/>
        <path class="cls-10" d="M274.04,415.27s5.75,1.53,14.29,3.86c8.54,2.33,14.29,4.79,14.29,4.79"/>
        <path class="cls-3" d="M167.64,439.46s-4.4,4.83-1.15,11.81c2.64,5.66,7.9,7.25,9.79,7.65.43.09.87,0,1.22-.26l12.92-9.28c1.48-1.06,2.1-2.96,1.52-4.69l-3.96-11.89"/>
        <line class="cls-3" x1="176.32" y1="492.97" x2="176.32" y2="504.74"/>
        <path class="cls-3" d="M226.19,482.83s.14,3.19,1.06,9.16c.92,5.96,2.91,9.16,2.91,9.16"/>
        <path class="cls-3" d="M264.71,467.17s4.48,1.21,8.62.86,8.62-1.95,8.62-1.95"/>
        <path class="cls-3" d="M235.08,361.57s-3.26,3.42-5.49,6.91c-2.24,3.5-4.1,7.46-4.1,7.46"/>
        <path class="cls-3" d="M220,391.78s-.72,1.63-.95,3.2c-.23,1.57-.33,3.27-.33,3.27"/>
      </g>
      <g>
        <path class="cls-9" d="M118.15,270.27l-8.06-1.4h0s8.07,1.4,8.07,1.4Z"/>
        <polygon class="cls-9" points="88.89 310.24 105.06 355.57 103.19 356.21 87.81 314.13 77.67 324.94 75.99 323.68 88.89 310.24"/>
        <polygon class="cls-9" points="77.67 324.94 76.4 326.3 57.97 312.92 59.37 311.22 75.99 323.68 77.67 324.94"/>
        <polygon class="cls-9" points="153.34 296.04 152.83 298.14 137.4 296.32 153.31 339.05 151.37 339.71 133.94 294 153.34 296.04"/>
        <polygon class="cls-9" points="160.74 275.57 154.79 298.37 152.83 298.14 153.34 296.04 158.44 275.19 160.74 275.57"/>
        <path class="cls-9" d="M110.08,268.86h0c.05.18.56,1.78,1.02,3.99-.7.53-4.39,3.17-8.9,4.85-4.46,1.67-8.89,2.08-9.79,2.16-1.17-2.1-1.84-3.74-1.84-3.74,0,0,6.08-.59,10.26-2.14,4.19-1.56,9.24-5.12,9.24-5.12h.01Z"/>
        <path class="cls-9" d="M118.27,270.26c.14,1.23.68,6.38,0,7.43-.46.72-3.02,1.55-5.03,2.11-.99.26-1.84.46-2.24.56.05-.32.74-3.98.28-6.63-.05-.31-.11-.6-.17-.87-.46-2.21-.97-3.81-1.02-3.98l8.06,1.4h.13Z"/>
        <path class="cls-9" d="M97.27,285.39c-.35.19-1.08.55-1.97.98h-.01c-1.86.89-4.36,1.93-5.16,1.68-1.18-.35-4.01-4.59-4.7-5.63l.05-.03,5.1-6.26s.67,1.65,1.84,3.74c.13.22.26.45.4.7,1.33,2.28,4.15,4.59,4.46,4.83Z"/>
        <path class="cls-1" d="M153.34,296.04l-19.39-2.04,17.43,45.71-46.32,15.86-16.16-45.33-12.9,13.44-16.62-12.46,19.78-24.01,6.27-4.8c.69,1.05,3.53,5.28,4.7,5.63.8.25,3.3-.79,5.16-1.67h.01c1.19.41,9.67,3.34,11.18,2.8,1.58-.58,6.4-8.77,6.75-9.38,2.01-.56,4.57-1.38,5.03-2.11.68-1.05.15-6.2,0-7.43l8.01-.48,32.16,5.4-5.1,20.86Z"/>
        <polygon class="cls-9" points="59.27 311.14 79.15 287.21 59.37 311.22 59.27 311.14"/>
        <path class="cls-2" d="M111.1,272.85c.06.28.12.57.17.87.46,2.65-.22,6.31-.28,6.63v.02s-4.06,7-5.08,7.38-8.62-2.34-8.62-2.34c0,0,0-.01-.02-.02-.31-.24-3.13-2.55-4.46-4.83-.14-.24-.27-.48-.4-.7.9-.08,5.33-.5,9.79-2.16,4.51-1.68,8.2-4.32,8.9-4.85Z"/>
        <line class="cls-9" x1="158.47" y1="275.05" x2="158.44" y2="275.19"/>
        <line class="cls-9" x1="59.37" y1="311.22" x2="59.27" y2="311.14"/>
        <path class="cls-9" d="M97.49,285.28s-.08.04-.22.11"/>
        <path class="cls-9" d="M85.42,282.41c-.09-.15-.15-.24-.15-.24"/>
        <path class="cls-9" d="M118.24,270.01s.02.09.03.26"/>
        <path class="cls-9" d="M110.99,280.35c-.16.04-.24.06-.24.06"/>
        <path class="cls-9" d="M95.28,286.37l-.13-.05"/>
        <path class="cls-9" d="M113.23,279.79c-.36.61-5.17,8.8-6.75,9.38-1.52.54-9.99-2.39-11.18-2.81.88-.42,1.62-.79,1.97-.98.02,0,.02.02.02.02,0,0,7.61,2.71,8.62,2.34s5.07-7.38,5.07-7.38v-.02c.41-.09,1.27-.29,2.25-.56Z"/>
        <path class="cls-9" d="M113.27,279.75s0,.02-.03.04"/>
        <path class="cls-9" d="M92.41,279.86c-.11,0-.17,0-.17,0"/>
        <path class="cls-9" d="M111.23,272.76s-.04.03-.12.09"/>
      </g>
    </g>
  </g>
</svg>